<svg xmlns="http://www.w3.org/2000/svg" width="21.444" height="20.559" viewBox="0 0 21.444 20.559">
  <g id="Group_1120" data-name="Group 1120" transform="translate(0.501 0.5)">
    <path id="Union_1" data-name="Union 1" d="M1.021,19.474a1.4,1.4,0,0,1-1-1.174,1.584,1.584,0,0,1,.588-1.419q3.589-3.544,7.166-7.1Q4.191,6.226.606,2.674A1.577,1.577,0,0,1,.018,1.26a1.4,1.4,0,0,1,1-1.178A1.4,1.4,0,0,1,2.528.451Q4.694,2.586,6.844,4.726C7.9,5.775,8.964,6.82,10.013,7.88c.161.156.24.169.4,0Q14.126,4.2,17.835.518A1.5,1.5,0,0,1,19.253.036a1.391,1.391,0,0,1,1.112.986,1.392,1.392,0,0,1-.374,1.491c-.6.609-1.2,1.206-1.808,1.8q-2.759,2.734-5.515,5.463,2.755,2.732,5.515,5.461c.6.6,1.21,1.2,1.808,1.8a1.456,1.456,0,0,1-.738,2.478,1.5,1.5,0,0,1-1.418-.478q-3.707-3.686-7.418-7.365c-.165-.168-.244-.156-.4,0-1.049,1.055-2.109,2.1-3.169,3.153q-2.152,2.137-4.316,4.276a1.406,1.406,0,0,1-1.009.449A1.576,1.576,0,0,1,1.021,19.474Z" transform="translate(-0.001 0)" fill="#fff"/>
    <path id="Union_1_-_Outline" data-name="Union 1 - Outline" d="M1.518,20.058a2.084,2.084,0,0,1-.654-.109A1.894,1.894,0,0,1-.476,18.38a2.089,2.089,0,0,1,.73-1.856C2.61,14.2,4.911,11.915,7.062,9.778L5.828,8.554C4,6.743,2.115,4.87.254,3.03a2.115,2.115,0,0,1-.73-1.848A1.9,1.9,0,0,1,.867-.394,2.085,2.085,0,0,1,1.512-.5a1.917,1.917,0,0,1,1.37.6C4.318,1.513,5.77,2.952,7.2,4.371L7.63,4.8c.851.841,1.729,1.71,2.589,2.577l3.033-3.011q2.116-2.1,4.231-4.2A2,2,0,0,1,19.35-.454,1.9,1.9,0,0,1,20.842.869a1.893,1.893,0,0,1-.5,2c-.528.538-1.073,1.076-1.6,1.6l-.211.209L16.166,7.017,13.379,9.778c1.714,1.7,3.447,3.415,5.157,5.106.243.243.485.483.727.723.356.354.725.72,1.085,1.083a1.956,1.956,0,0,1-1,3.321,1.964,1.964,0,0,1-1.866-.612q-2.224-2.212-4.447-4.416l-2.819-2.8c-.651.653-1.316,1.312-1.96,1.951L7.2,15.188l-.011.011c-1.409,1.4-2.865,2.846-4.306,4.266A1.911,1.911,0,0,1,1.518,20.058ZM1.512.5a1.09,1.09,0,0,0-.335.057.9.9,0,0,0-.665.783,1.08,1.08,0,0,0,.443.977C2.819,4.16,4.706,6.033,6.532,7.844L8.124,9.423a.5.5,0,0,1,0,.71c-2.253,2.238-4.68,4.648-7.167,7.1a1.1,1.1,0,0,0-.445.986A.9.9,0,0,0,1.174,19a1.083,1.083,0,0,0,.345.06.912.912,0,0,0,.656-.3c1.441-1.421,2.9-2.867,4.305-4.265l.011-.011,1.063-1.055c.692-.686,1.407-1.395,2.1-2.1a.8.8,0,0,1,.56-.272.787.787,0,0,1,.553.268l2.97,2.948q2.224,2.207,4.446,4.416a1.063,1.063,0,0,0,.757.364,1.05,1.05,0,0,0,.209-.022.884.884,0,0,0,.736-.645.9.9,0,0,0-.252-.99c-.358-.362-.725-.726-1.08-1.078q-.364-.361-.727-.724c-1.827-1.807-3.683-3.645-5.514-5.46a.5.5,0,0,1,0-.71q1.572-1.559,3.147-3.117L17.832,3.96l.212-.209c.524-.518,1.066-1.053,1.591-1.588a.894.894,0,0,0,.256-.986.891.891,0,0,0-.736-.65,1.077,1.077,0,0,0-.206-.021,1.059,1.059,0,0,0-.761.367q-2.116,2.1-4.232,4.2L10.77,8.238a.789.789,0,0,1-.551.264.8.8,0,0,1-.553-.263l-.008-.008c-.9-.913-1.833-1.832-2.731-2.72l-.435-.43C5.066,3.662,3.614,2.224,2.177.807A.919.919,0,0,0,1.512.5Z" transform="translate(-0.001 0)" fill="#fff"/>
  </g>
</svg>
