<svg xmlns="http://www.w3.org/2000/svg" width="16.727" height="16.002" viewBox="0 0 16.727 16.002">
  <g id="Group_1120" data-name="Group 1120" transform="translate(0.001 -0.001)">
    <path id="Union_1" data-name="Union 1" d="M.836,15.933a1.146,1.146,0,0,1-.821-.961A1.3,1.3,0,0,1,.5,13.811Q3.432,10.912,6.358,8,3.429,5.094.5,2.188A1.29,1.29,0,0,1,.015,1.031,1.148,1.148,0,0,1,.836.067a1.144,1.144,0,0,1,1.232.3Q3.84,2.116,5.6,3.866c.867.858,1.735,1.713,2.593,2.58.132.127.2.139.331,0Q11.558,3.436,14.592.424A1.228,1.228,0,0,1,15.752.03a1.138,1.138,0,0,1,.91.806,1.139,1.139,0,0,1-.306,1.22c-.489.5-.986.987-1.479,1.474Q12.62,5.767,10.365,8q2.254,2.235,4.512,4.468c.493.493.99.981,1.479,1.474a1.191,1.191,0,0,1-.6,2.027,1.226,1.226,0,0,1-1.16-.391q-3.033-3.016-6.069-6.026c-.135-.137-.2-.127-.331,0-.858.863-1.726,1.717-2.593,2.579q-1.76,1.749-3.531,3.5A1.15,1.15,0,0,1,1.242,16,1.289,1.289,0,0,1,.836,15.933Z" transform="translate(-0.001 0)" fill="#fff"/>
  </g>
</svg>
